<mxfile host="app.diagrams.net" modified="2023-09-28T13:29:19.714Z" agent="Mozilla/5.0 (Windows NT 10.0; Win64; x64) AppleWebKit/537.36 (KHTML, like Gecko) Chrome/117.0.0.0 Safari/537.36" etag="nGP007ABci31JR7eJxp8" version="21.7.5" type="device">
  <diagram name="Page-1" id="2ca16b54-16f6-2749-3443-fa8db7711227">
    <mxGraphModel dx="1919" dy="1283" grid="1" gridSize="10" guides="1" tooltips="1" connect="1" arrows="1" fold="1" page="1" pageScale="1" pageWidth="1100" pageHeight="850" background="none" math="0" shadow="0">
      <root>
        <mxCell id="0" />
        <mxCell id="1" parent="0" />
        <mxCell id="-vIIGHWTC6tkX-u3sToM-25" value="" style="rounded=0;whiteSpace=wrap;html=1;fillColor=none;" parent="1" vertex="1">
          <mxGeometry x="-10" y="-250" width="2300" height="1250" as="geometry" />
        </mxCell>
        <mxCell id="-vIIGHWTC6tkX-u3sToM-22" value="" style="rounded=0;whiteSpace=wrap;html=1;fillColor=none;" parent="1" vertex="1">
          <mxGeometry x="-1030" y="1460" width="2230" height="1310" as="geometry" />
        </mxCell>
        <mxCell id="2ed32ef02a7f4228-20" style="edgeStyle=orthogonalEdgeStyle;html=1;dashed=1;labelBackgroundColor=none;startArrow=ERone;endArrow=ERoneToMany;fontFamily=Verdana;fontSize=12;align=left;startFill=0;" parent="1" source="2ed32ef02a7f4228-2" target="2ed32ef02a7f4228-11" edge="1">
          <mxGeometry relative="1" as="geometry" />
        </mxCell>
        <mxCell id="ZLWsL5sGR49lSSAOwKUy-9" style="edgeStyle=orthogonalEdgeStyle;rounded=0;orthogonalLoop=1;jettySize=auto;html=1;entryX=0.5;entryY=0;entryDx=0;entryDy=0;startArrow=ERmany;startFill=0;endArrow=ERone;endFill=0;dashed=1;exitX=0.5;exitY=1;exitDx=0;exitDy=0;" parent="1" source="2ed32ef02a7f4228-2" target="2ed32ef02a7f4228-4" edge="1">
          <mxGeometry relative="1" as="geometry">
            <Array as="points">
              <mxPoint x="1140" y="335" />
              <mxPoint x="1220" y="335" />
            </Array>
          </mxGeometry>
        </mxCell>
        <mxCell id="-V3nQbq0R4X5hE5t_puW-1" value="&lt;font color=&quot;#ff3333&quot;&gt;Тут под вопросом&lt;/font&gt;" style="edgeLabel;html=1;align=center;verticalAlign=middle;resizable=0;points=[];" parent="ZLWsL5sGR49lSSAOwKUy-9" vertex="1" connectable="0">
          <mxGeometry x="0.2919" y="4" relative="1" as="geometry">
            <mxPoint as="offset" />
          </mxGeometry>
        </mxCell>
        <mxCell id="2ed32ef02a7f4228-2" value="&lt;div style=&quot;box-sizing: border-box ; width: 100% ; background: #e4e4e4 ; padding: 2px&quot;&gt;main_catalog&lt;/div&gt;&lt;table style=&quot;width: 100% ; font-size: 1em&quot; cellpadding=&quot;2&quot; cellspacing=&quot;0&quot;&gt;&lt;tbody&gt;&lt;tr&gt;&lt;td&gt;&lt;b&gt;PK&lt;/b&gt;&lt;/td&gt;&lt;td&gt;id&lt;/td&gt;&lt;/tr&gt;&lt;tr&gt;&lt;td&gt;datetime&lt;/td&gt;&lt;td&gt;created_date&lt;/td&gt;&lt;/tr&gt;&lt;tr&gt;&lt;td&gt;varchar(125)&lt;br&gt;datetime&lt;br&gt;datetime&lt;br&gt;&lt;/td&gt;&lt;td&gt;author_id&lt;br&gt;date_to&lt;br&gt;date_from&lt;/td&gt;&lt;/tr&gt;&lt;tr&gt;&lt;td&gt;varchar(125)&lt;/td&gt;&lt;td&gt;object_name&lt;br&gt;&lt;/td&gt;&lt;/tr&gt;&lt;tr&gt;&lt;td&gt;text&lt;br&gt;&lt;/td&gt;&lt;td&gt;description&lt;br&gt;&lt;/td&gt;&lt;/tr&gt;&lt;tr&gt;&lt;td&gt;boolean&lt;br&gt;&lt;b&gt;FK &lt;/b&gt;integer&lt;/td&gt;&lt;td&gt;active&lt;br&gt;roles_id&lt;/td&gt;&lt;/tr&gt;&lt;/tbody&gt;&lt;/table&gt;" style="verticalAlign=top;align=left;overflow=fill;html=1;rounded=0;shadow=0;comic=0;labelBackgroundColor=none;strokeWidth=1;fontFamily=Verdana;fontSize=12" parent="1" vertex="1">
          <mxGeometry x="1050" y="-15" width="180" height="250" as="geometry" />
        </mxCell>
        <mxCell id="2ed32ef02a7f4228-4" value="&lt;div style=&quot;box-sizing: border-box ; width: 100% ; background: #e4e4e4 ; padding: 2px&quot;&gt;roles&lt;/div&gt;&lt;table style=&quot;width: 100% ; font-size: 1em&quot; cellpadding=&quot;2&quot; cellspacing=&quot;0&quot;&gt;&lt;tbody&gt;&lt;tr&gt;&lt;td&gt;&lt;b&gt;PK&lt;/b&gt;&lt;/td&gt;&lt;td&gt;id&lt;/td&gt;&lt;/tr&gt;&lt;tr&gt;&lt;td&gt;varchar(100)&lt;/td&gt;&lt;td&gt;name_roles&lt;/td&gt;&lt;/tr&gt;&lt;tr&gt;&lt;td&gt;varchar(125)&lt;/td&gt;&lt;td&gt;privilages&lt;/td&gt;&lt;/tr&gt;&lt;/tbody&gt;&lt;/table&gt;" style="verticalAlign=top;align=left;overflow=fill;html=1;rounded=0;shadow=0;comic=0;labelBackgroundColor=none;strokeWidth=1;fontFamily=Verdana;fontSize=12" parent="1" vertex="1">
          <mxGeometry x="1130" y="380" width="180" height="80" as="geometry" />
        </mxCell>
        <mxCell id="2ed32ef02a7f4228-6" value="&lt;div style=&quot;box-sizing: border-box ; width: 100% ; background: #e4e4e4 ; padding: 2px&quot;&gt;file_attributes&lt;/div&gt;&lt;table style=&quot;width: 100% ; font-size: 1em&quot; cellpadding=&quot;2&quot; cellspacing=&quot;0&quot;&gt;&lt;tbody&gt;&lt;tr&gt;&lt;td&gt;&lt;b&gt;PK&lt;/b&gt;&lt;br&gt;datetime&lt;br&gt;varchar(125)&lt;/td&gt;&lt;td&gt;id&lt;br&gt;created_date&lt;br&gt;author_id&lt;/td&gt;&lt;/tr&gt;&lt;tr&gt;&lt;td&gt;varchar(255)&lt;/td&gt;&lt;td&gt;name_file&lt;/td&gt;&lt;/tr&gt;&lt;/tbody&gt;&lt;/table&gt;" style="verticalAlign=top;align=left;overflow=fill;html=1;rounded=0;shadow=0;comic=0;labelBackgroundColor=none;strokeWidth=1;fontFamily=Verdana;fontSize=12" parent="1" vertex="1">
          <mxGeometry x="649.96" y="590" width="180" height="100" as="geometry" />
        </mxCell>
        <mxCell id="RMgzlyPhwtT7mE4O96EJ-3" style="edgeStyle=orthogonalEdgeStyle;rounded=0;orthogonalLoop=1;jettySize=auto;html=1;entryX=-0.009;entryY=0.373;entryDx=0;entryDy=0;entryPerimeter=0;endArrow=ERmany;endFill=0;startArrow=ERone;startFill=0;exitX=1.006;exitY=0.153;exitDx=0;exitDy=0;exitPerimeter=0;dashed=1;" parent="1" source="2ed32ef02a7f4228-7" target="2ed32ef02a7f4228-12" edge="1">
          <mxGeometry relative="1" as="geometry" />
        </mxCell>
        <mxCell id="2ed32ef02a7f4228-7" value="&lt;div style=&quot;box-sizing: border-box ; width: 100% ; background: #e4e4e4 ; padding: 2px&quot;&gt;scoring_res&lt;/div&gt;&lt;table style=&quot;width: 100% ; font-size: 1em&quot; cellpadding=&quot;2&quot; cellspacing=&quot;0&quot;&gt;&lt;tbody&gt;&lt;tr&gt;&lt;td&gt;&lt;b&gt;PK&lt;/b&gt; bigserial&lt;br&gt;uuid&lt;/td&gt;&lt;td&gt;id&lt;br&gt;uuid&lt;/td&gt;&lt;/tr&gt;&lt;tr&gt;&lt;td&gt;varchar(125)&lt;br&gt;&lt;/td&gt;&lt;td&gt;author_id&lt;br&gt;&lt;/td&gt;&lt;/tr&gt;&lt;tr&gt;&lt;td&gt;datetime&lt;/td&gt;&lt;td&gt;created_date&lt;/td&gt;&lt;/tr&gt;&lt;tr&gt;&lt;td&gt;integer&lt;/td&gt;&lt;td&gt;version&lt;br&gt;&lt;/td&gt;&lt;/tr&gt;&lt;tr&gt;&lt;td&gt;boolean&lt;br&gt;varchar(255)&lt;br&gt;varchar(125)&lt;/td&gt;&lt;td&gt;active&lt;br&gt;name_model&lt;br&gt;status&lt;/td&gt;&lt;/tr&gt;&lt;/tbody&gt;&lt;/table&gt;" style="verticalAlign=top;align=left;overflow=fill;html=1;rounded=0;shadow=0;comic=0;labelBackgroundColor=none;strokeWidth=1;fontFamily=Verdana;fontSize=12" parent="1" vertex="1">
          <mxGeometry x="1670" y="645" width="210" height="240" as="geometry" />
        </mxCell>
        <mxCell id="ZLWsL5sGR49lSSAOwKUy-6" style="edgeStyle=orthogonalEdgeStyle;rounded=0;orthogonalLoop=1;jettySize=auto;html=1;entryX=0.5;entryY=0;entryDx=0;entryDy=0;startArrow=ERmany;startFill=0;endArrow=ERone;endFill=0;dashed=1;" parent="1" source="2ed32ef02a7f4228-8" target="2ed32ef02a7f4228-6" edge="1">
          <mxGeometry relative="1" as="geometry">
            <Array as="points">
              <mxPoint x="740" y="565" />
              <mxPoint x="740" y="565" />
            </Array>
          </mxGeometry>
        </mxCell>
        <mxCell id="2ed32ef02a7f4228-8" value="&lt;div style=&quot;box-sizing: border-box ; width: 100% ; background: #e4e4e4 ; padding: 2px&quot;&gt;csv_attributes&lt;/div&gt;&lt;table style=&quot;width: 100% ; font-size: 1em&quot; cellpadding=&quot;2&quot; cellspacing=&quot;0&quot;&gt;&lt;tbody&gt;&lt;tr&gt;&lt;td&gt;&lt;b&gt;PK&lt;/b&gt; bigserial&lt;br&gt;uuid&lt;/td&gt;&lt;td&gt;id (id записи)&lt;br&gt;uuid&lt;/td&gt;&lt;/tr&gt;&lt;tr&gt;&lt;td&gt;varchar(125)&lt;/td&gt;&lt;td&gt;author_id&amp;nbsp;&lt;/td&gt;&lt;/tr&gt;&lt;tr&gt;&lt;td&gt;datetime&lt;/td&gt;&lt;td&gt;created_date&lt;/td&gt;&lt;/tr&gt;&lt;tr&gt;&lt;td&gt;varchar(255)&lt;/td&gt;&lt;td&gt;Наименование организации (1)&lt;br&gt;&lt;/td&gt;&lt;/tr&gt;&lt;tr&gt;&lt;td&gt;datetime&lt;/td&gt;&lt;td&gt;Отчетная дата (2)&lt;br&gt;&lt;/td&gt;&lt;/tr&gt;&lt;tr&gt;&lt;td&gt;integer&lt;br&gt;&lt;/td&gt;&lt;td&gt;ИНН (3)&lt;br&gt;&lt;/td&gt;&lt;/tr&gt;&lt;tr&gt;&lt;td&gt;...&lt;/td&gt;&lt;td&gt;...&lt;/td&gt;&lt;/tr&gt;&lt;tr&gt;&lt;td&gt;numeric()&lt;br&gt;&lt;/td&gt;&lt;td&gt;ИСХОДНИК Сумма задолженности (130)&lt;br&gt;&lt;/td&gt;&lt;/tr&gt;&lt;tr&gt;&lt;td&gt;&lt;b&gt;FK &lt;/b&gt;integer&lt;/td&gt;&lt;td&gt;file_id&lt;/td&gt;&lt;/tr&gt;&lt;/tbody&gt;&lt;/table&gt;" style="verticalAlign=top;align=left;overflow=fill;html=1;rounded=0;shadow=0;comic=0;labelBackgroundColor=none;strokeWidth=1;fontFamily=Verdana;fontSize=12" parent="1" vertex="1">
          <mxGeometry x="570" y="315" width="430.04" height="210" as="geometry" />
        </mxCell>
        <mxCell id="2ed32ef02a7f4228-9" value="&lt;div style=&quot;box-sizing:border-box;width:100%;background:#e4e4e4;padding:2px;&quot;&gt;counted_attr_formula&lt;/div&gt;&lt;table style=&quot;width:100%;font-size:1em;&quot; cellpadding=&quot;2&quot; cellspacing=&quot;0&quot;&gt;&lt;tbody&gt;&lt;tr&gt;&lt;td&gt;&lt;b&gt;PK&lt;/b&gt;&lt;br&gt;varchar(125)&lt;br&gt;datetime&lt;br&gt;boolean&lt;/td&gt;&lt;td&gt;id&lt;br&gt;autor_id&lt;br&gt;created_date&lt;br&gt;active&lt;/td&gt;&lt;/tr&gt;&lt;tr&gt;&lt;td&gt;varchar(255)&lt;br&gt;varchar(255)&lt;/td&gt;&lt;td&gt;attr_formulas(хранить в тексте)&lt;br&gt;description&lt;/td&gt;&lt;/tr&gt;&lt;/tbody&gt;&lt;/table&gt;" style="verticalAlign=top;align=left;overflow=fill;html=1;rounded=0;shadow=0;comic=0;labelBackgroundColor=none;strokeWidth=1;fontFamily=Verdana;fontSize=12" parent="1" vertex="1">
          <mxGeometry x="1490" y="-140" width="280" height="125" as="geometry" />
        </mxCell>
        <mxCell id="ZLWsL5sGR49lSSAOwKUy-10" style="edgeStyle=orthogonalEdgeStyle;rounded=0;orthogonalLoop=1;jettySize=auto;html=1;entryX=0;entryY=0.5;entryDx=0;entryDy=0;" parent="1" source="2ed32ef02a7f4228-10" target="2ed32ef02a7f4228-8" edge="1">
          <mxGeometry relative="1" as="geometry">
            <Array as="points">
              <mxPoint x="480" y="420" />
            </Array>
          </mxGeometry>
        </mxCell>
        <mxCell id="ZLWsL5sGR49lSSAOwKUy-11" value="&lt;font color=&quot;#ff3333&quot;&gt;КАКАЯ ????&lt;br&gt;СВЯЗЬ ПО UUID???&lt;/font&gt;" style="edgeLabel;html=1;align=center;verticalAlign=middle;resizable=0;points=[];" parent="ZLWsL5sGR49lSSAOwKUy-10" vertex="1" connectable="0">
          <mxGeometry x="-0.0672" y="2" relative="1" as="geometry">
            <mxPoint as="offset" />
          </mxGeometry>
        </mxCell>
        <mxCell id="2ed32ef02a7f4228-10" value="&lt;div style=&quot;box-sizing: border-box ; width: 100% ; background: #e4e4e4 ; padding: 2px&quot;&gt;counted_attributes&lt;/div&gt;&lt;table style=&quot;width: 100% ; font-size: 1em&quot; cellpadding=&quot;2&quot; cellspacing=&quot;0&quot;&gt;&lt;tbody&gt;&lt;tr&gt;&lt;td&gt;&lt;b&gt;PK&lt;/b&gt;&lt;br&gt;uuid&lt;/td&gt;&lt;td&gt;id&lt;br&gt;uuid&lt;/td&gt;&lt;/tr&gt;&lt;tr&gt;&lt;td&gt;varchar(125)&lt;/td&gt;&lt;td&gt;author_id&lt;/td&gt;&lt;/tr&gt;&lt;tr&gt;&lt;td&gt;datetime&lt;/td&gt;&lt;td&gt;created_date&lt;/td&gt;&lt;/tr&gt;&lt;tr&gt;&lt;td&gt;&lt;br&gt;&lt;/td&gt;&lt;td&gt;&lt;/td&gt;&lt;/tr&gt;&lt;tr&gt;&lt;td&gt;numeric&lt;br&gt;&lt;/td&gt;&lt;td&gt;Стоимость других основных средств, руб.(131)&lt;br&gt;&lt;/td&gt;&lt;/tr&gt;&lt;tr&gt;&lt;td&gt;numeric&lt;br&gt;&lt;/td&gt;&lt;td&gt;Коэффициент текущей ликвидности (132)&lt;br&gt;&lt;/td&gt;&lt;/tr&gt;&lt;tr&gt;&lt;td&gt;...&lt;br&gt;&lt;/td&gt;&lt;td&gt;...&lt;/td&gt;&lt;/tr&gt;&lt;tr&gt;&lt;td&gt;numeric&lt;/td&gt;&lt;td&gt;Ликвидационная стоимость бизнеса (в тыс. рублей) (175)&lt;br&gt;&lt;/td&gt;&lt;/tr&gt;&lt;tr&gt;&lt;td&gt;&lt;br&gt;&lt;/td&gt;&lt;td&gt;&lt;br&gt;&lt;/td&gt;&lt;/tr&gt;&lt;tr&gt;&lt;td&gt;&lt;br&gt;&lt;/td&gt;&lt;td&gt;&lt;br&gt;&lt;/td&gt;&lt;/tr&gt;&lt;tr&gt;&lt;td&gt;&lt;br&gt;&lt;/td&gt;&lt;td&gt;&lt;br&gt;&lt;/td&gt;&lt;/tr&gt;&lt;tr&gt;&lt;td&gt;&lt;br&gt;&lt;/td&gt;&lt;td&gt;&lt;br&gt;&lt;/td&gt;&lt;/tr&gt;&lt;/tbody&gt;&lt;/table&gt;" style="verticalAlign=top;align=left;overflow=fill;html=1;rounded=0;shadow=0;comic=0;labelBackgroundColor=none;strokeWidth=1;fontFamily=Verdana;fontSize=12" parent="1" vertex="1">
          <mxGeometry x="90" y="55" width="430.04" height="190" as="geometry" />
        </mxCell>
        <mxCell id="ZLWsL5sGR49lSSAOwKUy-8" style="edgeStyle=orthogonalEdgeStyle;rounded=0;orthogonalLoop=1;jettySize=auto;html=1;entryX=0;entryY=0.5;entryDx=0;entryDy=0;startArrow=ERmany;startFill=0;endArrow=ERone;endFill=0;dashed=1;" parent="1" source="2ed32ef02a7f4228-11" target="2ed32ef02a7f4228-9" edge="1">
          <mxGeometry relative="1" as="geometry" />
        </mxCell>
        <mxCell id="2ed32ef02a7f4228-11" value="&lt;div style=&quot;box-sizing:border-box;width:100%;background:#e4e4e4;padding:2px;&quot;&gt;main_catalog_fields&lt;br&gt;&lt;/div&gt;&lt;table style=&quot;width:100%;font-size:1em;&quot; cellpadding=&quot;2&quot; cellspacing=&quot;0&quot;&gt;&lt;tbody&gt;&lt;tr&gt;&lt;td&gt;&lt;b&gt;PK&lt;/b&gt;&lt;/td&gt;&lt;td&gt;id&lt;/td&gt;&lt;/tr&gt;&lt;tr&gt;&lt;td&gt;varchar(125)&lt;/td&gt;&lt;td&gt;autor_id&lt;/td&gt;&lt;/tr&gt;&lt;tr&gt;&lt;td&gt;datetime&lt;br&gt;&lt;b&gt;FK&lt;/b&gt; integer&lt;br&gt;varchar(125)&lt;br&gt;&lt;b&gt;FK &lt;/b&gt;integer&lt;/td&gt;&lt;td&gt;created_date&lt;br&gt;main_catalog_id&lt;br&gt;fields&lt;br&gt;cnt_formula_id&lt;/td&gt;&lt;/tr&gt;&lt;/tbody&gt;&lt;/table&gt;" style="verticalAlign=top;align=left;overflow=fill;html=1;rounded=0;shadow=0;comic=0;labelBackgroundColor=none;strokeWidth=1;fontFamily=Verdana;fontSize=12" parent="1" vertex="1">
          <mxGeometry x="1310" y="30" width="230" height="160" as="geometry" />
        </mxCell>
        <mxCell id="2ed32ef02a7f4228-12" value="&lt;div style=&quot;box-sizing: border-box ; width: 100% ; background: #e4e4e4 ; padding: 2px&quot;&gt;scoring_res_history&lt;/div&gt;&lt;table style=&quot;width: 100% ; font-size: 1em&quot; cellpadding=&quot;2&quot; cellspacing=&quot;0&quot;&gt;&lt;tbody&gt;&lt;tr&gt;&lt;td&gt;&lt;b&gt;PK&lt;/b&gt; bigserial&lt;br&gt;uuid&lt;br&gt;varchar(255)&lt;br&gt;datetime&lt;/td&gt;&lt;td&gt;id&lt;br&gt;uuid&lt;br&gt;author_id&lt;br&gt;created_date&lt;br&gt;&lt;/td&gt;&lt;/tr&gt;&lt;tr&gt;&lt;td&gt;&lt;b&gt;FK&lt;/b&gt;&amp;nbsp;integer&lt;/td&gt;&lt;td&gt;scoring_res_id&lt;/td&gt;&lt;/tr&gt;&lt;tr&gt;&lt;td&gt;datetime&lt;/td&gt;&lt;td&gt;date_from&amp;nbsp;&lt;/td&gt;&lt;/tr&gt;&lt;tr&gt;&lt;td&gt;datetime&lt;br&gt;&lt;/td&gt;&lt;td&gt;date_to&lt;br&gt;&lt;/td&gt;&lt;/tr&gt;&lt;tr&gt;&lt;td&gt;integer&lt;/td&gt;&lt;td&gt;version&lt;br&gt;&lt;/td&gt;&lt;/tr&gt;&lt;tr&gt;&lt;td&gt;varchar(255)&lt;br&gt;boolean&lt;br&gt;varchar(125)&lt;/td&gt;&lt;td&gt;model_name&lt;br&gt;active&lt;br&gt;status&lt;br&gt;&lt;/td&gt;&lt;/tr&gt;&lt;/tbody&gt;&lt;/table&gt;" style="verticalAlign=top;align=left;overflow=fill;html=1;rounded=0;shadow=0;comic=0;labelBackgroundColor=none;strokeWidth=1;fontFamily=Verdana;fontSize=12" parent="1" vertex="1">
          <mxGeometry x="1970" y="700" width="220" height="235" as="geometry" />
        </mxCell>
        <mxCell id="RMgzlyPhwtT7mE4O96EJ-2" style="edgeStyle=orthogonalEdgeStyle;rounded=0;orthogonalLoop=1;jettySize=auto;html=1;entryX=1;entryY=0.5;entryDx=0;entryDy=0;exitX=0.5;exitY=0;exitDx=0;exitDy=0;startArrow=ERmany;startFill=0;endArrow=ERone;endFill=0;dashed=1;" parent="1" source="RMgzlyPhwtT7mE4O96EJ-1" target="2ed32ef02a7f4228-4" edge="1">
          <mxGeometry relative="1" as="geometry" />
        </mxCell>
        <mxCell id="RMgzlyPhwtT7mE4O96EJ-1" value="&lt;div style=&quot;box-sizing: border-box ; width: 100% ; background: #e4e4e4 ; padding: 2px&quot;&gt;users&lt;/div&gt;&lt;table style=&quot;width: 100% ; font-size: 1em&quot; cellpadding=&quot;2&quot; cellspacing=&quot;0&quot;&gt;&lt;tbody&gt;&lt;tr&gt;&lt;td&gt;PK&lt;/td&gt;&lt;td&gt;id&lt;/td&gt;&lt;/tr&gt;&lt;tr&gt;&lt;td&gt;varchar(125)&lt;/td&gt;&lt;td&gt;login(email)&lt;/td&gt;&lt;/tr&gt;&lt;tr&gt;&lt;td&gt;varchar(125)&lt;/td&gt;&lt;td&gt;password&lt;/td&gt;&lt;/tr&gt;&lt;tr&gt;&lt;td&gt;&lt;b&gt;FK &lt;/b&gt;integer&lt;/td&gt;&lt;td&gt;rights_id&lt;br&gt;&lt;/td&gt;&lt;/tr&gt;&lt;/tbody&gt;&lt;/table&gt;" style="verticalAlign=top;align=left;overflow=fill;html=1;rounded=0;shadow=0;comic=0;labelBackgroundColor=none;strokeWidth=1;fontFamily=Verdana;fontSize=12" parent="1" vertex="1">
          <mxGeometry x="1340" y="445" width="210" height="90" as="geometry" />
        </mxCell>
        <mxCell id="-V3nQbq0R4X5hE5t_puW-2" style="edgeStyle=orthogonalEdgeStyle;rounded=0;orthogonalLoop=1;jettySize=auto;html=1;entryX=1;entryY=0.25;entryDx=0;entryDy=0;startArrow=ERmany;startFill=0;endArrow=ERone;endFill=0;dashed=1;" parent="1" source="ZLWsL5sGR49lSSAOwKUy-12" target="2ed32ef02a7f4228-9" edge="1">
          <mxGeometry relative="1" as="geometry" />
        </mxCell>
        <mxCell id="ZLWsL5sGR49lSSAOwKUy-12" value="&lt;div style=&quot;box-sizing:border-box;width:100%;background:#e4e4e4;padding:2px;&quot;&gt;counted_attr_formula_manual&lt;/div&gt;&lt;table style=&quot;width:100%;font-size:1em;&quot; cellpadding=&quot;2&quot; cellspacing=&quot;0&quot;&gt;&lt;tbody&gt;&lt;tr&gt;&lt;td&gt;&lt;b&gt;PK&lt;/b&gt;&lt;br&gt;varchar(125)&lt;br&gt;datetime&lt;br&gt;boolean&lt;br&gt;&lt;b&gt;FK&lt;/b&gt; integer&lt;/td&gt;&lt;td&gt;id&lt;br&gt;autor_id&lt;br&gt;created_date&lt;br&gt;active&lt;br&gt;formula_id&lt;/td&gt;&lt;/tr&gt;&lt;tr&gt;&lt;td&gt;varchar(255)&lt;br&gt;varchar(255)&lt;br&gt;varchar(255)&lt;br&gt;&lt;/td&gt;&lt;td&gt;formula_from&lt;br&gt;formula_to&lt;br&gt;description&lt;/td&gt;&lt;/tr&gt;&lt;/tbody&gt;&lt;/table&gt;" style="verticalAlign=top;align=left;overflow=fill;html=1;rounded=0;shadow=0;comic=0;labelBackgroundColor=none;strokeWidth=1;fontFamily=Verdana;fontSize=12" parent="1" vertex="1">
          <mxGeometry x="1830" y="15" width="280" height="160" as="geometry" />
        </mxCell>
        <mxCell id="-vIIGHWTC6tkX-u3sToM-1" value="&lt;div style=&quot;box-sizing: border-box ; width: 100% ; background: #e4e4e4 ; padding: 2px&quot;&gt;file_attributes&lt;/div&gt;&lt;table style=&quot;width: 100% ; font-size: 1em&quot; cellpadding=&quot;2&quot; cellspacing=&quot;0&quot;&gt;&lt;tbody&gt;&lt;tr&gt;&lt;td&gt;&lt;b&gt;PK&lt;/b&gt;&lt;br&gt;datetime&lt;br&gt;varchar(125)&lt;/td&gt;&lt;td&gt;id&lt;br&gt;created_date&lt;br&gt;author_id&lt;/td&gt;&lt;/tr&gt;&lt;tr&gt;&lt;td&gt;varchar(255)&lt;/td&gt;&lt;td&gt;name_file&lt;/td&gt;&lt;/tr&gt;&lt;/tbody&gt;&lt;/table&gt;" style="verticalAlign=top;align=left;overflow=fill;html=1;rounded=0;shadow=0;comic=0;labelBackgroundColor=none;strokeWidth=1;fontFamily=Verdana;fontSize=12" parent="1" vertex="1">
          <mxGeometry x="-710" y="1890" width="180" height="100" as="geometry" />
        </mxCell>
        <mxCell id="-vIIGHWTC6tkX-u3sToM-2" style="edgeStyle=orthogonalEdgeStyle;rounded=0;orthogonalLoop=1;jettySize=auto;html=1;entryX=0.5;entryY=0;entryDx=0;entryDy=0;startArrow=ERmany;startFill=0;endArrow=ERone;endFill=0;dashed=1;" parent="1" source="-vIIGHWTC6tkX-u3sToM-3" target="-vIIGHWTC6tkX-u3sToM-1" edge="1">
          <mxGeometry relative="1" as="geometry">
            <Array as="points">
              <mxPoint x="-620" y="1830" />
              <mxPoint x="-620" y="1830" />
            </Array>
          </mxGeometry>
        </mxCell>
        <mxCell id="-vIIGHWTC6tkX-u3sToM-3" value="&lt;div style=&quot;box-sizing: border-box ; width: 100% ; background: #e4e4e4 ; padding: 2px&quot;&gt;csv_attributes&lt;/div&gt;&lt;table style=&quot;width: 100% ; font-size: 1em&quot; cellpadding=&quot;2&quot; cellspacing=&quot;0&quot;&gt;&lt;tbody&gt;&lt;tr&gt;&lt;td&gt;&lt;b&gt;PK&lt;/b&gt; bigserial&lt;br&gt;uuid&lt;/td&gt;&lt;td&gt;id (id записи)&lt;br&gt;uuid&lt;/td&gt;&lt;/tr&gt;&lt;tr&gt;&lt;td&gt;varchar(125)&lt;/td&gt;&lt;td&gt;author_id&amp;nbsp;&lt;/td&gt;&lt;/tr&gt;&lt;tr&gt;&lt;td&gt;datetime&lt;/td&gt;&lt;td&gt;created_date&lt;/td&gt;&lt;/tr&gt;&lt;tr&gt;&lt;td&gt;varchar(255)&lt;/td&gt;&lt;td&gt;Наименование организации (1)&lt;br&gt;&lt;/td&gt;&lt;/tr&gt;&lt;tr&gt;&lt;td&gt;datetime&lt;/td&gt;&lt;td&gt;Отчетная дата (2)&lt;br&gt;&lt;/td&gt;&lt;/tr&gt;&lt;tr&gt;&lt;td&gt;integer&lt;br&gt;&lt;/td&gt;&lt;td&gt;ИНН (3)&lt;br&gt;&lt;/td&gt;&lt;/tr&gt;&lt;tr&gt;&lt;td&gt;...&lt;/td&gt;&lt;td&gt;...&lt;/td&gt;&lt;/tr&gt;&lt;tr&gt;&lt;td&gt;numeric()&lt;br&gt;&lt;/td&gt;&lt;td&gt;ИСХОДНИК Сумма задолженности (130)&lt;br&gt;&lt;/td&gt;&lt;/tr&gt;&lt;tr&gt;&lt;td&gt;&lt;b&gt;FK &lt;/b&gt;integer&lt;/td&gt;&lt;td&gt;file_id&lt;/td&gt;&lt;/tr&gt;&lt;/tbody&gt;&lt;/table&gt;" style="verticalAlign=top;align=left;overflow=fill;html=1;rounded=0;shadow=0;comic=0;labelBackgroundColor=none;strokeWidth=1;fontFamily=Verdana;fontSize=12" parent="1" vertex="1">
          <mxGeometry x="-890" y="1580" width="430.04" height="210" as="geometry" />
        </mxCell>
        <mxCell id="-vIIGHWTC6tkX-u3sToM-4" style="edgeStyle=orthogonalEdgeStyle;html=1;dashed=1;labelBackgroundColor=none;startArrow=ERone;endArrow=ERoneToMany;fontFamily=Verdana;fontSize=12;align=left;startFill=0;" parent="1" source="-vIIGHWTC6tkX-u3sToM-5" target="-vIIGHWTC6tkX-u3sToM-6" edge="1">
          <mxGeometry relative="1" as="geometry" />
        </mxCell>
        <mxCell id="-vIIGHWTC6tkX-u3sToM-5" value="&lt;div style=&quot;box-sizing: border-box ; width: 100% ; background: #e4e4e4 ; padding: 2px&quot;&gt;main_catalog&lt;/div&gt;&lt;table style=&quot;width: 100% ; font-size: 1em&quot; cellpadding=&quot;2&quot; cellspacing=&quot;0&quot;&gt;&lt;tbody&gt;&lt;tr&gt;&lt;td&gt;&lt;b&gt;PK&lt;/b&gt;&lt;/td&gt;&lt;td&gt;id&lt;/td&gt;&lt;/tr&gt;&lt;tr&gt;&lt;td&gt;datetime&lt;/td&gt;&lt;td&gt;created_date&lt;/td&gt;&lt;/tr&gt;&lt;tr&gt;&lt;td&gt;varchar(125)&lt;br&gt;datetime&lt;br&gt;datetime&lt;br&gt;&lt;/td&gt;&lt;td&gt;author_id&lt;br&gt;date_to&lt;br&gt;date_from&lt;/td&gt;&lt;/tr&gt;&lt;tr&gt;&lt;td&gt;varchar(125)&lt;/td&gt;&lt;td&gt;object_name&lt;br&gt;&lt;/td&gt;&lt;/tr&gt;&lt;tr&gt;&lt;td&gt;text&lt;br&gt;&lt;/td&gt;&lt;td&gt;description&lt;br&gt;&lt;/td&gt;&lt;/tr&gt;&lt;tr&gt;&lt;td&gt;boolean&lt;br&gt;&lt;/td&gt;&lt;td&gt;active&lt;br&gt;&lt;/td&gt;&lt;/tr&gt;&lt;/tbody&gt;&lt;/table&gt;" style="verticalAlign=top;align=left;overflow=fill;html=1;rounded=0;shadow=0;comic=0;labelBackgroundColor=none;strokeWidth=1;fontFamily=Verdana;fontSize=12" parent="1" vertex="1">
          <mxGeometry x="-880" y="2380" width="180" height="170" as="geometry" />
        </mxCell>
        <mxCell id="-vIIGHWTC6tkX-u3sToM-6" value="&lt;div style=&quot;box-sizing:border-box;width:100%;background:#e4e4e4;padding:2px;&quot;&gt;main_catalog_fields&lt;br&gt;&lt;/div&gt;&lt;table style=&quot;width:100%;font-size:1em;&quot; cellpadding=&quot;2&quot; cellspacing=&quot;0&quot;&gt;&lt;tbody&gt;&lt;tr&gt;&lt;td&gt;&lt;b&gt;PK&lt;/b&gt;&lt;/td&gt;&lt;td&gt;id&lt;/td&gt;&lt;/tr&gt;&lt;tr&gt;&lt;td&gt;varchar(125)&lt;/td&gt;&lt;td&gt;autor_id&lt;/td&gt;&lt;/tr&gt;&lt;tr&gt;&lt;td&gt;datetime&lt;br&gt;&lt;b&gt;FK&lt;/b&gt; integer&lt;br&gt;varchar(125)&lt;br&gt;&lt;/td&gt;&lt;td&gt;created_date&lt;br&gt;main_catalog_id&lt;br&gt;fields&lt;br&gt;&lt;/td&gt;&lt;/tr&gt;&lt;/tbody&gt;&lt;/table&gt;" style="verticalAlign=top;align=left;overflow=fill;html=1;rounded=0;shadow=0;comic=0;labelBackgroundColor=none;strokeWidth=1;fontFamily=Verdana;fontSize=12" parent="1" vertex="1">
          <mxGeometry x="-620" y="2360" width="230" height="110" as="geometry" />
        </mxCell>
        <mxCell id="2VDkxxeXL2ezd0XBWRj1-18" style="edgeStyle=orthogonalEdgeStyle;rounded=0;orthogonalLoop=1;jettySize=auto;html=1;entryX=0;entryY=0.5;entryDx=0;entryDy=0;exitX=0.5;exitY=0;exitDx=0;exitDy=0;startArrow=ERone;startFill=0;endArrow=ERmany;endFill=0;dashed=1;" edge="1" parent="1" source="-vIIGHWTC6tkX-u3sToM-7" target="-vIIGHWTC6tkX-u3sToM-9">
          <mxGeometry relative="1" as="geometry" />
        </mxCell>
        <mxCell id="-vIIGHWTC6tkX-u3sToM-7" value="&lt;div style=&quot;box-sizing:border-box;width:100%;background:#e4e4e4;padding:2px;&quot;&gt;counted_attr&lt;/div&gt;&lt;table style=&quot;width:100%;font-size:1em;&quot; cellpadding=&quot;2&quot; cellspacing=&quot;0&quot;&gt;&lt;tbody&gt;&lt;tr&gt;&lt;td&gt;&lt;b&gt;PK&lt;br&gt;&lt;/b&gt;uuid&lt;br&gt;varchar(125)&lt;br&gt;datetime&lt;br&gt;boolean&lt;/td&gt;&lt;td&gt;id&lt;br&gt;uuid&lt;br&gt;autor_id&lt;br&gt;created_date&lt;br&gt;active&lt;/td&gt;&lt;/tr&gt;&lt;tr&gt;&lt;td&gt;varchar(255)&lt;br&gt;&lt;/td&gt;&lt;td&gt;name_cntd_attr&lt;br&gt;&lt;/td&gt;&lt;/tr&gt;&lt;/tbody&gt;&lt;/table&gt;" style="verticalAlign=top;align=left;overflow=fill;html=1;rounded=0;shadow=0;comic=0;labelBackgroundColor=none;strokeWidth=1;fontFamily=Verdana;fontSize=12" parent="1" vertex="1">
          <mxGeometry x="360" y="1930" width="290" height="120" as="geometry" />
        </mxCell>
        <mxCell id="-vIIGHWTC6tkX-u3sToM-9" value="&lt;div style=&quot;box-sizing:border-box;width:100%;background:#e4e4e4;padding:2px;&quot;&gt;counted_attr_formula_manual&lt;/div&gt;&lt;table style=&quot;width:100%;font-size:1em;&quot; cellpadding=&quot;2&quot; cellspacing=&quot;0&quot;&gt;&lt;tbody&gt;&lt;tr&gt;&lt;td&gt;&lt;b&gt;PK&lt;/b&gt;&lt;br&gt;varchar(125)&lt;br&gt;datetime&lt;br&gt;boolean&lt;br&gt;&lt;b&gt;FK&lt;/b&gt; integer&lt;/td&gt;&lt;td&gt;id&lt;br&gt;autor_id&lt;br&gt;created_date&lt;br&gt;active&lt;br&gt;formula_id&lt;/td&gt;&lt;/tr&gt;&lt;tr&gt;&lt;td&gt;varchar(255)&lt;br&gt;varchar(255)&lt;br&gt;varchar(255)&lt;br&gt;&lt;/td&gt;&lt;td&gt;formula_from&lt;br&gt;formula_to&lt;br&gt;description&lt;/td&gt;&lt;/tr&gt;&lt;/tbody&gt;&lt;/table&gt;" style="verticalAlign=top;align=left;overflow=fill;html=1;rounded=0;shadow=0;comic=0;labelBackgroundColor=none;strokeWidth=1;fontFamily=Verdana;fontSize=12" parent="1" vertex="1">
          <mxGeometry x="790" y="1730" width="290" height="150" as="geometry" />
        </mxCell>
        <mxCell id="2VDkxxeXL2ezd0XBWRj1-2" style="edgeStyle=orthogonalEdgeStyle;rounded=0;orthogonalLoop=1;jettySize=auto;html=1;entryX=0;entryY=0.5;entryDx=0;entryDy=0;dashed=1;startArrow=ERmany;startFill=0;endArrow=ERone;endFill=0;" edge="1" parent="1" source="-vIIGHWTC6tkX-u3sToM-10" target="2VDkxxeXL2ezd0XBWRj1-1">
          <mxGeometry relative="1" as="geometry" />
        </mxCell>
        <mxCell id="-vIIGHWTC6tkX-u3sToM-10" value="&lt;div style=&quot;box-sizing: border-box ; width: 100% ; background: #e4e4e4 ; padding: 2px&quot;&gt;roles&lt;/div&gt;&lt;table style=&quot;width: 100% ; font-size: 1em&quot; cellpadding=&quot;2&quot; cellspacing=&quot;0&quot;&gt;&lt;tbody&gt;&lt;tr&gt;&lt;td&gt;&lt;b&gt;PK&lt;/b&gt;&lt;/td&gt;&lt;td&gt;id&lt;/td&gt;&lt;/tr&gt;&lt;tr&gt;&lt;td&gt;varchar(100)&lt;/td&gt;&lt;td&gt;name_roles&lt;/td&gt;&lt;/tr&gt;&lt;tr&gt;&lt;td&gt;varchar(125)&lt;br&gt;&lt;b&gt;FK &lt;/b&gt;integer&lt;/td&gt;&lt;td&gt;privilages&lt;br&gt;role_user_id&lt;/td&gt;&lt;/tr&gt;&lt;/tbody&gt;&lt;/table&gt;" style="verticalAlign=top;align=left;overflow=fill;html=1;rounded=0;shadow=0;comic=0;labelBackgroundColor=none;strokeWidth=1;fontFamily=Verdana;fontSize=12" parent="1" vertex="1">
          <mxGeometry x="-890" y="2170" width="180" height="100" as="geometry" />
        </mxCell>
        <mxCell id="-vIIGHWTC6tkX-u3sToM-11" style="edgeStyle=orthogonalEdgeStyle;rounded=0;orthogonalLoop=1;jettySize=auto;html=1;entryX=1;entryY=0.5;entryDx=0;entryDy=0;exitX=0.5;exitY=0;exitDx=0;exitDy=0;startArrow=ERmany;startFill=0;endArrow=ERone;endFill=0;dashed=1;" parent="1" source="-vIIGHWTC6tkX-u3sToM-12" target="2VDkxxeXL2ezd0XBWRj1-1" edge="1">
          <mxGeometry relative="1" as="geometry" />
        </mxCell>
        <mxCell id="-vIIGHWTC6tkX-u3sToM-12" value="&lt;div style=&quot;box-sizing: border-box ; width: 100% ; background: #e4e4e4 ; padding: 2px&quot;&gt;users&lt;/div&gt;&lt;table style=&quot;width: 100% ; font-size: 1em&quot; cellpadding=&quot;2&quot; cellspacing=&quot;0&quot;&gt;&lt;tbody&gt;&lt;tr&gt;&lt;td&gt;&lt;b&gt;PK&lt;/b&gt;&lt;br&gt;datetime&lt;/td&gt;&lt;td&gt;id&lt;br&gt;created_date&lt;/td&gt;&lt;/tr&gt;&lt;tr&gt;&lt;td&gt;varchar(125)&lt;/td&gt;&lt;td&gt;login(email)&lt;/td&gt;&lt;/tr&gt;&lt;tr&gt;&lt;td&gt;varchar(125)&lt;/td&gt;&lt;td&gt;password&lt;/td&gt;&lt;/tr&gt;&lt;tr&gt;&lt;td&gt;&lt;b&gt;FK &lt;/b&gt;integer&lt;/td&gt;&lt;td&gt;user_role_id&lt;br&gt;&lt;/td&gt;&lt;/tr&gt;&lt;/tbody&gt;&lt;/table&gt;" style="verticalAlign=top;align=left;overflow=fill;html=1;rounded=0;shadow=0;comic=0;labelBackgroundColor=none;strokeWidth=1;fontFamily=Verdana;fontSize=12" parent="1" vertex="1">
          <mxGeometry x="-540" y="2175" width="210" height="120" as="geometry" />
        </mxCell>
        <mxCell id="-vIIGHWTC6tkX-u3sToM-16" style="edgeStyle=orthogonalEdgeStyle;rounded=0;orthogonalLoop=1;jettySize=auto;html=1;entryX=0.5;entryY=0;entryDx=0;entryDy=0;endArrow=ERmany;endFill=0;startArrow=ERone;startFill=0;exitX=0.5;exitY=1;exitDx=0;exitDy=0;dashed=1;" parent="1" source="-vIIGHWTC6tkX-u3sToM-17" target="-vIIGHWTC6tkX-u3sToM-18" edge="1">
          <mxGeometry relative="1" as="geometry" />
        </mxCell>
        <mxCell id="2VDkxxeXL2ezd0XBWRj1-8" style="edgeStyle=orthogonalEdgeStyle;rounded=0;orthogonalLoop=1;jettySize=auto;html=1;entryX=0;entryY=0.5;entryDx=0;entryDy=0;dashed=1;startArrow=ERone;startFill=0;endArrow=ERmany;endFill=0;" edge="1" parent="1" source="-vIIGHWTC6tkX-u3sToM-17" target="2VDkxxeXL2ezd0XBWRj1-6">
          <mxGeometry relative="1" as="geometry">
            <Array as="points">
              <mxPoint x="10" y="2085" />
              <mxPoint x="10" y="1993" />
              <mxPoint x="30" y="1993" />
              <mxPoint x="30" y="1988" />
            </Array>
          </mxGeometry>
        </mxCell>
        <mxCell id="-vIIGHWTC6tkX-u3sToM-17" value="&lt;div style=&quot;box-sizing: border-box ; width: 100% ; background: #e4e4e4 ; padding: 2px&quot;&gt;scoring_model&lt;/div&gt;&lt;table style=&quot;width: 100% ; font-size: 1em&quot; cellpadding=&quot;2&quot; cellspacing=&quot;0&quot;&gt;&lt;tbody&gt;&lt;tr&gt;&lt;td&gt;&lt;b&gt;PK&lt;/b&gt; bigserial&lt;br&gt;uuid&lt;/td&gt;&lt;td&gt;id&lt;br&gt;uuid&lt;/td&gt;&lt;/tr&gt;&lt;tr&gt;&lt;td&gt;varchar(125)&lt;br&gt;&lt;/td&gt;&lt;td&gt;author_id&lt;br&gt;&lt;/td&gt;&lt;/tr&gt;&lt;tr&gt;&lt;td&gt;datetime&lt;/td&gt;&lt;td&gt;created_date&lt;/td&gt;&lt;/tr&gt;&lt;tr&gt;&lt;td&gt;integer&lt;/td&gt;&lt;td&gt;version&lt;br&gt;&lt;/td&gt;&lt;/tr&gt;&lt;tr&gt;&lt;td&gt;boolean&lt;br&gt;varchar(255)&lt;br&gt;varchar(125)&lt;br&gt;&lt;/td&gt;&lt;td&gt;active&lt;br&gt;name_model&lt;br&gt;status&lt;br&gt;&lt;/td&gt;&lt;/tr&gt;&lt;/tbody&gt;&lt;/table&gt;" style="verticalAlign=top;align=left;overflow=fill;html=1;rounded=0;shadow=0;comic=0;labelBackgroundColor=none;strokeWidth=1;fontFamily=Verdana;fontSize=12" parent="1" vertex="1">
          <mxGeometry x="-240" y="2000" width="210" height="170" as="geometry" />
        </mxCell>
        <mxCell id="-vIIGHWTC6tkX-u3sToM-18" value="&lt;div style=&quot;box-sizing: border-box ; width: 100% ; background: #e4e4e4 ; padding: 2px&quot;&gt;scoring_model_history&lt;/div&gt;&lt;table style=&quot;width: 100% ; font-size: 1em&quot; cellpadding=&quot;2&quot; cellspacing=&quot;0&quot;&gt;&lt;tbody&gt;&lt;tr&gt;&lt;td&gt;&lt;b&gt;PK&lt;/b&gt; bigserial&lt;br&gt;uuid&lt;br&gt;varchar(255)&lt;br&gt;datetime&lt;/td&gt;&lt;td&gt;id&lt;br&gt;uuid&lt;br&gt;author_id&lt;br&gt;created_date&lt;br&gt;&lt;/td&gt;&lt;/tr&gt;&lt;tr&gt;&lt;td&gt;&lt;b&gt;FK&lt;/b&gt;&amp;nbsp;integer&lt;/td&gt;&lt;td&gt;scoring_res_id&lt;/td&gt;&lt;/tr&gt;&lt;tr&gt;&lt;td&gt;datetime&lt;/td&gt;&lt;td&gt;date_from&amp;nbsp;&lt;/td&gt;&lt;/tr&gt;&lt;tr&gt;&lt;td&gt;datetime&lt;br&gt;&lt;/td&gt;&lt;td&gt;date_to&lt;br&gt;&lt;/td&gt;&lt;/tr&gt;&lt;tr&gt;&lt;td&gt;integer&lt;/td&gt;&lt;td&gt;version&lt;br&gt;&lt;/td&gt;&lt;/tr&gt;&lt;tr&gt;&lt;td&gt;varchar(255)&lt;br&gt;boolean&lt;br&gt;varchar(125)&lt;/td&gt;&lt;td&gt;model_name&lt;br&gt;active&lt;br&gt;status&lt;br&gt;&lt;/td&gt;&lt;/tr&gt;&lt;/tbody&gt;&lt;/table&gt;" style="verticalAlign=top;align=left;overflow=fill;html=1;rounded=0;shadow=0;comic=0;labelBackgroundColor=none;strokeWidth=1;fontFamily=Verdana;fontSize=12" parent="1" vertex="1">
          <mxGeometry x="-240" y="2260" width="220" height="210" as="geometry" />
        </mxCell>
        <mxCell id="-vIIGHWTC6tkX-u3sToM-23" value="&lt;font style=&quot;font-size: 40px;&quot;&gt;Новая Версия Скоринга&lt;/font&gt;" style="text;html=1;strokeColor=none;fillColor=none;align=center;verticalAlign=middle;whiteSpace=wrap;rounded=0;" parent="1" vertex="1">
          <mxGeometry x="-960" y="1410" width="540" height="30" as="geometry" />
        </mxCell>
        <mxCell id="-vIIGHWTC6tkX-u3sToM-26" value="&lt;font style=&quot;font-size: 40px;&quot;&gt;Старая версия&lt;/font&gt;" style="text;html=1;strokeColor=none;fillColor=none;align=center;verticalAlign=middle;whiteSpace=wrap;rounded=0;" parent="1" vertex="1">
          <mxGeometry x="-40" y="-290" width="390" height="30" as="geometry" />
        </mxCell>
        <mxCell id="2VDkxxeXL2ezd0XBWRj1-1" value="&lt;div style=&quot;box-sizing: border-box ; width: 100% ; background: #e4e4e4 ; padding: 2px&quot;&gt;user_role&lt;/div&gt;&lt;table style=&quot;width: 100% ; font-size: 1em&quot; cellpadding=&quot;2&quot; cellspacing=&quot;0&quot;&gt;&lt;tbody&gt;&lt;tr&gt;&lt;td&gt;&lt;b&gt;PK&lt;/b&gt;&lt;br&gt;datetime&lt;/td&gt;&lt;td&gt;id&lt;br&gt;created_date&lt;/td&gt;&lt;/tr&gt;&lt;tr&gt;&lt;td&gt;&lt;b&gt;FK &lt;/b&gt;integer&lt;/td&gt;&lt;td&gt;user_id&lt;/td&gt;&lt;/tr&gt;&lt;tr&gt;&lt;td&gt;&lt;b&gt;FK &lt;/b&gt;integer&lt;br&gt;&lt;/td&gt;&lt;td&gt;roles_id&lt;/td&gt;&lt;/tr&gt;&lt;/tbody&gt;&lt;/table&gt;" style="verticalAlign=top;align=left;overflow=fill;html=1;rounded=0;shadow=0;comic=0;labelBackgroundColor=none;strokeWidth=1;fontFamily=Verdana;fontSize=12" vertex="1" parent="1">
          <mxGeometry x="-660" y="2040" width="180" height="90" as="geometry" />
        </mxCell>
        <mxCell id="2VDkxxeXL2ezd0XBWRj1-3" value="&lt;div style=&quot;box-sizing: border-box ; width: 100% ; background: #e4e4e4 ; padding: 2px&quot;&gt;counted_attributes&amp;nbsp; (TEMP TABLE)&lt;/div&gt;&lt;table style=&quot;width: 100% ; font-size: 1em&quot; cellpadding=&quot;2&quot; cellspacing=&quot;0&quot;&gt;&lt;tbody&gt;&lt;tr&gt;&lt;td&gt;&lt;b&gt;PK&lt;/b&gt;&lt;br&gt;uuid&lt;/td&gt;&lt;td&gt;id&lt;br&gt;uuid ( брать из csv_attributes.uuid )&lt;/td&gt;&lt;/tr&gt;&lt;tr&gt;&lt;td&gt;varchar(125)&lt;/td&gt;&lt;td&gt;author_id&lt;/td&gt;&lt;/tr&gt;&lt;tr&gt;&lt;td&gt;datetime&lt;/td&gt;&lt;td&gt;created_date&lt;/td&gt;&lt;/tr&gt;&lt;tr&gt;&lt;td&gt;&lt;b&gt;FK&lt;/b&gt; integer&lt;/td&gt;&lt;td&gt;ИНН&lt;/td&gt;&lt;/tr&gt;&lt;tr&gt;&lt;td&gt;numeric&lt;br&gt;&lt;/td&gt;&lt;td&gt;Стоимость других основных средств, руб.(131)&lt;br&gt;&lt;/td&gt;&lt;/tr&gt;&lt;tr&gt;&lt;td&gt;numeric&lt;br&gt;&lt;/td&gt;&lt;td&gt;Коэффициент текущей ликвидности (132)&lt;br&gt;&lt;/td&gt;&lt;/tr&gt;&lt;tr&gt;&lt;td&gt;...&lt;br&gt;&lt;/td&gt;&lt;td&gt;...&lt;/td&gt;&lt;/tr&gt;&lt;tr&gt;&lt;td&gt;numeric&lt;/td&gt;&lt;td&gt;Ликвидационная стоимость бизнеса (в тыс. рублей) (175)&lt;br&gt;&lt;/td&gt;&lt;/tr&gt;&lt;tr&gt;&lt;td&gt;integer&amp;nbsp;&lt;/td&gt;&lt;td&gt;result_model (либо ранг int - varchar(255) )&lt;/td&gt;&lt;/tr&gt;&lt;/tbody&gt;&lt;/table&gt;" style="verticalAlign=top;align=left;overflow=fill;html=1;rounded=0;shadow=0;comic=0;labelBackgroundColor=none;strokeWidth=1;fontFamily=Verdana;fontSize=12" vertex="1" parent="1">
          <mxGeometry x="-330" y="1620" width="480" height="220" as="geometry" />
        </mxCell>
        <mxCell id="2VDkxxeXL2ezd0XBWRj1-5" value="- &lt;b&gt;&lt;u&gt;temp table&lt;/u&gt;&lt;/b&gt; - создается на базе выбранных формул из таблицы&amp;nbsp;counted_attr_formula, но &lt;b&gt;&lt;u&gt;будет удаляться&lt;/u&gt; &lt;/b&gt;при каждом вычислении скоринга, т.е. таблица создается на момент сессии&lt;br&gt;- Поля данной таблица будут &lt;b&gt;динамически меняться&lt;/b&gt; в зависимости от передаваемых полей с фронта" style="fillColor=#FFC82E;strokeColor=none;whiteSpace=wrap;html=1;" vertex="1" parent="1">
          <mxGeometry x="120" y="1600" width="200" height="160" as="geometry" />
        </mxCell>
        <mxCell id="2VDkxxeXL2ezd0XBWRj1-7" style="edgeStyle=orthogonalEdgeStyle;rounded=0;orthogonalLoop=1;jettySize=auto;html=1;entryX=0;entryY=0.433;entryDx=0;entryDy=0;entryPerimeter=0;dashed=1;endArrow=ERone;endFill=0;startArrow=ERmany;startFill=0;" edge="1" parent="1" source="2VDkxxeXL2ezd0XBWRj1-6" target="-vIIGHWTC6tkX-u3sToM-7">
          <mxGeometry relative="1" as="geometry" />
        </mxCell>
        <mxCell id="2VDkxxeXL2ezd0XBWRj1-6" value="&lt;div style=&quot;box-sizing: border-box ; width: 100% ; background: #e4e4e4 ; padding: 2px&quot;&gt;scoring_model_cntd_attr&lt;/div&gt;&lt;table style=&quot;width: 100% ; font-size: 1em&quot; cellpadding=&quot;2&quot; cellspacing=&quot;0&quot;&gt;&lt;tbody&gt;&lt;tr&gt;&lt;td&gt;&lt;b&gt;PK&lt;/b&gt; bigserial&lt;br&gt;datetime&lt;br&gt;varchar(125)&lt;br&gt;&lt;b&gt;FK&lt;/b&gt; integer&lt;br&gt;&lt;/td&gt;&lt;td&gt;id&lt;br&gt;created_date&lt;br&gt;author_id&lt;br&gt;id_model&lt;/td&gt;&lt;/tr&gt;&lt;tr&gt;&lt;td&gt;&lt;b&gt;FK&lt;/b&gt; integer&lt;br&gt;&lt;/td&gt;&lt;td&gt;id_cntd_field&lt;br&gt;&lt;/td&gt;&lt;/tr&gt;&lt;tr&gt;&lt;td&gt;&lt;/td&gt;&lt;td&gt;&lt;br&gt;&lt;/td&gt;&lt;/tr&gt;&lt;/tbody&gt;&lt;/table&gt;" style="verticalAlign=top;align=left;overflow=fill;html=1;rounded=0;shadow=0;comic=0;labelBackgroundColor=none;strokeWidth=1;fontFamily=Verdana;fontSize=12" vertex="1" parent="1">
          <mxGeometry x="100" y="1930" width="210" height="115" as="geometry" />
        </mxCell>
        <mxCell id="2VDkxxeXL2ezd0XBWRj1-12" style="edgeStyle=orthogonalEdgeStyle;rounded=0;orthogonalLoop=1;jettySize=auto;html=1;startArrow=ERmany;startFill=0;endArrow=ERone;endFill=0;dashed=1;" edge="1" parent="1" source="2VDkxxeXL2ezd0XBWRj1-9" target="2VDkxxeXL2ezd0XBWRj1-11">
          <mxGeometry relative="1" as="geometry" />
        </mxCell>
        <mxCell id="2VDkxxeXL2ezd0XBWRj1-9" value="&lt;div style=&quot;box-sizing: border-box ; width: 100% ; background: #e4e4e4 ; padding: 2px&quot;&gt;scoring_model_inn_res&lt;/div&gt;&lt;table style=&quot;width: 100% ; font-size: 1em&quot; cellpadding=&quot;2&quot; cellspacing=&quot;0&quot;&gt;&lt;tbody&gt;&lt;tr&gt;&lt;td&gt;&lt;b&gt;PK&lt;/b&gt; bigserial&lt;br&gt;datetime&lt;br&gt;varchar(125)&lt;br&gt;&lt;b&gt;FK&lt;/b&gt; integer&lt;br&gt;&lt;/td&gt;&lt;td&gt;id&lt;br&gt;created_date&lt;br&gt;author_id&lt;br&gt;id_model&lt;/td&gt;&lt;/tr&gt;&lt;tr&gt;&lt;td&gt;&lt;b&gt;FK&lt;/b&gt; integer&lt;br&gt;&lt;/td&gt;&lt;td&gt;id_inn_res&lt;br&gt;&lt;/td&gt;&lt;/tr&gt;&lt;tr&gt;&lt;td&gt;&lt;/td&gt;&lt;td&gt;&lt;br&gt;&lt;/td&gt;&lt;/tr&gt;&lt;/tbody&gt;&lt;/table&gt;" style="verticalAlign=top;align=left;overflow=fill;html=1;rounded=0;shadow=0;comic=0;labelBackgroundColor=none;strokeWidth=1;fontFamily=Verdana;fontSize=12" vertex="1" parent="1">
          <mxGeometry x="80" y="2150" width="210" height="115" as="geometry" />
        </mxCell>
        <mxCell id="2VDkxxeXL2ezd0XBWRj1-10" style="edgeStyle=orthogonalEdgeStyle;rounded=0;orthogonalLoop=1;jettySize=auto;html=1;dashed=1;startArrow=ERone;startFill=0;endArrow=ERmany;endFill=0;exitX=1;exitY=0.5;exitDx=0;exitDy=0;" edge="1" parent="1" source="-vIIGHWTC6tkX-u3sToM-17" target="2VDkxxeXL2ezd0XBWRj1-9">
          <mxGeometry relative="1" as="geometry">
            <mxPoint x="-50" y="2130" as="sourcePoint" />
            <mxPoint x="50" y="2003" as="targetPoint" />
          </mxGeometry>
        </mxCell>
        <mxCell id="2VDkxxeXL2ezd0XBWRj1-11" value="&lt;div style=&quot;box-sizing: border-box ; width: 100% ; background: #e4e4e4 ; padding: 2px&quot;&gt;scoring_results&lt;/div&gt;&lt;table style=&quot;width: 100% ; font-size: 1em&quot; cellpadding=&quot;2&quot; cellspacing=&quot;0&quot;&gt;&lt;tbody&gt;&lt;tr&gt;&lt;td&gt;&lt;b&gt;PK&lt;/b&gt; bigserial&lt;br&gt;datetime&lt;br&gt;varchar(125)&lt;br&gt;integer&lt;br&gt;&lt;/td&gt;&lt;td&gt;id&lt;br&gt;created_date&lt;br&gt;author_id&lt;br&gt;inn&lt;/td&gt;&lt;/tr&gt;&lt;tr&gt;&lt;td&gt;integer&lt;br&gt;&lt;/td&gt;&lt;td&gt;result_score&lt;/td&gt;&lt;/tr&gt;&lt;/tbody&gt;&lt;/table&gt;" style="verticalAlign=top;align=left;overflow=fill;html=1;rounded=0;shadow=0;comic=0;labelBackgroundColor=none;strokeWidth=1;fontFamily=Verdana;fontSize=12" vertex="1" parent="1">
          <mxGeometry x="360" y="2152.5" width="290" height="110" as="geometry" />
        </mxCell>
        <mxCell id="2VDkxxeXL2ezd0XBWRj1-13" value="&lt;div style=&quot;box-sizing:border-box;width:100%;background:#e4e4e4;padding:2px;&quot;&gt;counted_attr_formula&lt;/div&gt;&lt;table style=&quot;width:100%;font-size:1em;&quot; cellpadding=&quot;2&quot; cellspacing=&quot;0&quot;&gt;&lt;tbody&gt;&lt;tr&gt;&lt;td&gt;&lt;b&gt;PK&lt;br&gt;&lt;/b&gt;uuid&lt;br&gt;varchar(125)&lt;br&gt;datetime&lt;br&gt;boolean&lt;/td&gt;&lt;td&gt;id&lt;br&gt;uuid&lt;br&gt;autor_id&lt;br&gt;created_date&lt;br&gt;active&lt;/td&gt;&lt;/tr&gt;&lt;tr&gt;&lt;td&gt;varchar(255)&lt;br&gt;varchar(255)&lt;br&gt;&lt;b&gt;FK &lt;/b&gt;integer&lt;br&gt;integer&lt;/td&gt;&lt;td&gt;attr_formulas(хранить в тексте)&lt;br&gt;description&lt;br&gt;cntd_attr_id&lt;br&gt;nested_level&lt;/td&gt;&lt;/tr&gt;&lt;/tbody&gt;&lt;/table&gt;" style="verticalAlign=top;align=left;overflow=fill;html=1;rounded=0;shadow=0;comic=0;labelBackgroundColor=none;strokeWidth=1;fontFamily=Verdana;fontSize=12" vertex="1" parent="1">
          <mxGeometry x="790" y="1907.5" width="290" height="160" as="geometry" />
        </mxCell>
        <mxCell id="2VDkxxeXL2ezd0XBWRj1-15" style="edgeStyle=orthogonalEdgeStyle;rounded=0;orthogonalLoop=1;jettySize=auto;html=1;dashed=1;startArrow=ERone;startFill=0;endArrow=ERmany;endFill=0;exitX=1;exitY=0.5;exitDx=0;exitDy=0;" edge="1" parent="1" source="-vIIGHWTC6tkX-u3sToM-7" target="2VDkxxeXL2ezd0XBWRj1-13">
          <mxGeometry relative="1" as="geometry">
            <mxPoint x="980" y="1895" as="sourcePoint" />
          </mxGeometry>
        </mxCell>
        <mxCell id="2VDkxxeXL2ezd0XBWRj1-17" value="- Пока нет необходимости в текущем MVP&lt;br&gt;- Создаем для будущих итераций развития сервиса" style="fillColor=#FFC82E;strokeColor=none;whiteSpace=wrap;html=1;" vertex="1" parent="1">
          <mxGeometry x="-560" y="1840" width="150" height="80" as="geometry" />
        </mxCell>
        <mxCell id="2VDkxxeXL2ezd0XBWRj1-21" value="Для названия атрибутов в данной таблице прислан файл &quot;Импорт с названиями атрибутов.xlsx&quot;" style="fillColor=#FFC82E;strokeColor=none;whiteSpace=wrap;html=1;" vertex="1" parent="1">
          <mxGeometry x="-510" y="1520" width="150" height="80" as="geometry" />
        </mxCell>
        <mxCell id="2VDkxxeXL2ezd0XBWRj1-22" value="Для названия атрибутов в данной таблице прислан файл &quot;Импорт с названиями атрибутов.xlsx&quot;" style="fillColor=#FFC82E;strokeColor=none;whiteSpace=wrap;html=1;" vertex="1" parent="1">
          <mxGeometry x="590" y="1880" width="150" height="80" as="geometry" />
        </mxCell>
        <mxCell id="2VDkxxeXL2ezd0XBWRj1-23" value="" style="rounded=0;whiteSpace=wrap;html=1;fillColor=none;" vertex="1" parent="1">
          <mxGeometry x="1510" y="1470" width="2230" height="1310" as="geometry" />
        </mxCell>
        <mxCell id="2VDkxxeXL2ezd0XBWRj1-24" value="&lt;font style=&quot;font-size: 40px;&quot;&gt;Версия CRM&lt;/font&gt;" style="text;html=1;strokeColor=none;fillColor=none;align=center;verticalAlign=middle;whiteSpace=wrap;rounded=0;" vertex="1" parent="1">
          <mxGeometry x="1510" y="1410" width="540" height="30" as="geometry" />
        </mxCell>
        <mxCell id="2VDkxxeXL2ezd0XBWRj1-25" value="Возможна реализация через Django и его ограничения для пользователей" style="fillColor=#FFC82E;strokeColor=none;whiteSpace=wrap;html=1;" vertex="1" parent="1">
          <mxGeometry x="-700" y="2167.5" width="150" height="80" as="geometry" />
        </mxCell>
      </root>
    </mxGraphModel>
  </diagram>
</mxfile>
